# xmcd
#
# Track frame offsets: 
#        150
#        15460
#        33263
#        47989
#
# Disc length: 825 seconds
#
# Revision: 2
# Processed by: cddbd v1.5.2PL0 Copyright (c) Steve Scherf et al.
# Submitted via: ExactAudioCopy v0.99pb5
#
DISCID=27033704
DTITLE=The Pierces - You'll Be Mine E.P.
DYEAR=2011
DGENRE=Pop
TTITLE0=You'll Be Mine
TTITLE1=Piece Of You
TTITLE2=Me And Him
TTITLE3=You'll Be Mine (Live Acoustic)
EXTD=
EXTT0=
EXTT1=
EXTT2=
EXTT3=
PLAYORDER=
